<svg width="14" height="20" viewBox="0 0 14 20" fill="none" xmlns="http://www.w3.org/2000/svg">
<path d="M6.925 20C6.225 20 5.54583 19.925 4.8875 19.775C4.22917 19.625 3.63333 19.4333 3.1 19.2C2.33333 18.8667 1.70833 18.4625 1.225 17.9875C0.741667 17.5125 0.5 16.9833 0.5 16.4V10.625C0.5 10.1083 0.695833 9.63333 1.0875 9.2C1.47917 8.76667 1.98333 8.38333 2.6 8.05C3.23333 7.71667 3.92917 7.45833 4.6875 7.275C5.44583 7.09167 6.21667 7 7 7C7.78333 7 8.55417 7.09167 9.3125 7.275C10.0708 7.45833 10.7667 7.71667 11.4 8.05C12.0333 8.38333 12.5417 8.76667 12.925 9.2C13.3083 9.63333 13.5 10.1083 13.5 10.625V16.4C13.5 16.6833 13.4375 16.9583 13.3125 17.225C13.1875 17.4917 13.0083 17.7417 12.775 17.975C12.5417 18.2083 12.2708 18.4292 11.9625 18.6375C11.6542 18.8458 11.3083 19.0333 10.925 19.2C10.9417 19.1167 10.9667 18.8833 11 18.5C11 17.5333 10.6583 16.7083 9.975 16.025C9.29167 15.3417 8.46667 15 7.5 15C6.78333 15 6.15 15.1917 5.6 15.575C5.05 15.9583 4.63333 16.45 4.35 17.05C4.88333 17.1833 5.37083 17.275 5.8125 17.325C6.25417 17.375 6.64167 17.4 6.975 17.4C7.25833 17.4 7.4875 17.3917 7.6625 17.375C7.8375 17.3583 7.95 17.35 8 17.35V19.95C7.81667 19.9667 7.6375 19.9792 7.4625 19.9875C7.2875 19.9958 7.10833 20 6.925 20ZM10 14.5C10.55 14.5 11.0208 14.3042 11.4125 13.9125C11.8042 13.5208 12 13.05 12 12.5C12 11.95 11.8042 11.4792 11.4125 11.0875C11.0208 10.6958 10.55 10.5 10 10.5C9.45 10.5 8.97917 10.6958 8.5875 11.0875C8.19583 11.4792 8 11.95 8 12.5C8 13.05 8.19583 13.5208 8.5875 13.9125C8.97917 14.3042 9.45 14.5 10 14.5ZM7 6C7.83333 6 8.54167 5.7125 9.125 5.1375C9.70833 4.5625 10 3.85 10 3C10 2.16667 9.70833 1.45833 9.125 0.875C8.54167 0.291667 7.83333 0 7 0C6.15 0 5.4375 0.291667 4.8625 0.875C4.2875 1.45833 4 2.16667 4 3C4 3.85 4.2875 4.5625 4.8625 5.1375C5.4375 5.7125 6.15 6 7 6Z" fill="black"/>
</svg>
