<svg width="17" height="21" viewBox="0 0 17 21" fill="none" xmlns="http://www.w3.org/2000/svg">
<path d="M6.8125 16.6875H10.1875V13.875H13V10.5H10.1875V7.6875H6.8125V10.5H4V13.875H6.8125V16.6875ZM2.875 20.625C2.25625 20.625 1.72656 20.4047 1.28594 19.9641C0.845312 19.5234 0.625 18.9937 0.625 18.375V6C0.625 5.38125 0.845312 4.85156 1.28594 4.41094C1.72656 3.97031 2.25625 3.75 2.875 3.75H14.125C14.7437 3.75 15.2734 3.97031 15.7141 4.41094C16.1547 4.85156 16.375 5.38125 16.375 6V18.375C16.375 18.9937 16.1547 19.5234 15.7141 19.9641C15.2734 20.4047 14.7437 20.625 14.125 20.625H2.875ZM2.875 18.375H14.125V6H2.875V18.375ZM1.75 2.625V0.375H15.25V2.625H1.75Z" fill="black"/>
</svg>
