<svg width="68" height="71" viewBox="0 0 68 71" fill="none" xmlns="http://www.w3.org/2000/svg">
<path d="M8.33336 70.375C5.21669 70.375 3.00141 68.9057 1.68752 65.9672C0.373636 63.0286 0.694469 60.3 2.65002 57.7812L23 31.625V8.375H19.3334C18.2945 8.375 17.4236 8.00365 16.7209 7.26094C16.0181 6.51823 15.6667 5.59792 15.6667 4.5C15.6667 3.40208 16.0181 2.48177 16.7209 1.73906C17.4236 0.996354 18.2945 0.625 19.3334 0.625H48.6667C49.7056 0.625 50.5764 0.996354 51.2792 1.73906C51.982 2.48177 52.3334 3.40208 52.3334 4.5C52.3334 5.59792 51.982 6.51823 51.2792 7.26094C50.5764 8.00365 49.7056 8.375 48.6667 8.375H45V31.625L65.35 57.7812C67.3056 60.3 67.6264 63.0286 66.3125 65.9672C64.9986 68.9057 62.7834 70.375 59.6667 70.375H8.33336ZM15.6667 58.75H52.3334L39.8667 43.25H28.1334L15.6667 58.75ZM8.33336 62.625H59.6667L37.6667 34.3375V8.375H30.3334V34.3375L8.33336 62.625Z" fill="black"/>
</svg>
