<svg width="45" height="75" viewBox="0 0 45 75" fill="none" xmlns="http://www.w3.org/2000/svg">
<path d="M4.5 18.5417C3.225 18.5417 2.15625 18.1863 1.29375 17.4755C0.43125 16.7648 0 15.884 0 14.8333C0 13.7826 0.43125 12.9019 1.29375 12.1911C2.15625 11.4804 3.225 11.125 4.5 11.125H18V3.70833C18 2.65764 18.4312 1.77691 19.2937 1.06615C20.1562 0.355382 21.225 0 22.5 0C23.775 0 24.8438 0.355382 25.7062 1.06615C26.5687 1.77691 27 2.65764 27 3.70833V11.125H40.5C41.775 11.125 42.8438 11.4804 43.7062 12.1911C44.5687 12.9019 45 13.7826 45 14.8333C45 15.884 44.5687 16.7648 43.7062 17.4755C42.8438 18.1863 41.775 18.5417 40.5 18.5417H4.5ZM9 74.1667C6.525 74.1667 4.40625 73.4404 2.64375 71.988C0.88125 70.5356 0 68.7896 0 66.75V33.375C0 30.2847 1.3125 27.658 3.9375 25.4948C6.5625 23.3316 9.75 22.25 13.5 22.25H31.5C35.25 22.25 38.4375 23.3316 41.0625 25.4948C43.6875 27.658 45 30.2847 45 33.375V66.75C45 68.7896 44.1187 70.5356 42.3563 71.988C40.5938 73.4404 38.475 74.1667 36 74.1667H9ZM9 66.75H36V33.375C36 32.3243 35.5687 31.4436 34.7062 30.7328C33.8438 30.022 32.775 29.6667 31.5 29.6667H13.5C12.225 29.6667 11.1562 30.022 10.2937 30.7328C9.43125 31.4436 9 32.3243 9 33.375V37.0833H18C19.275 37.0833 20.3438 37.4387 21.2062 38.1495C22.0687 38.8602 22.5 39.741 22.5 40.7917C22.5 41.8424 22.0687 42.7231 21.2062 43.4338C20.3438 44.1446 19.275 44.5 18 44.5H9V51.9167H18C19.275 51.9167 20.3438 52.272 21.2062 52.9828C22.0687 53.6936 22.5 54.5743 22.5 55.625C22.5 56.6757 22.0687 57.5564 21.2062 58.2672C20.3438 58.9779 19.275 59.3333 18 59.3333H9V66.75Z" fill="black"/>
</svg>
