<svg width="69" height="56" viewBox="0 0 69 56" fill="none" xmlns="http://www.w3.org/2000/svg">
<path d="M0.125 55.3333V41.6666C0.125 39.7305 0.736979 38.1076 1.96094 36.7979C3.1849 35.4882 4.65625 34.8333 6.375 34.8333H16.6094C17.651 34.8333 18.6406 35.118 19.5781 35.6875C20.5156 36.2569 21.2708 37.0257 21.8438 37.9937C23.3542 40.2145 25.2161 41.9513 27.4297 43.2041C29.6432 44.4569 32 45.0833 34.5 45.0833C37.0521 45.0833 39.4349 44.4569 41.6484 43.2041C43.862 41.9513 45.6979 40.2145 47.1562 37.9937C47.8333 37.0257 48.6276 36.2569 49.5391 35.6875C50.4505 35.118 51.401 34.8333 52.3906 34.8333H62.625C64.3958 34.8333 65.8802 35.4882 67.0781 36.7979C68.276 38.1076 68.875 39.7305 68.875 41.6666V55.3333H47V47.5604C45.1771 48.984 43.2109 50.0659 41.1016 50.8062C38.9922 51.5465 36.7917 51.9166 34.5 51.9166C32.2604 51.9166 30.0729 51.5322 27.9375 50.7635C25.8021 49.9948 23.8229 48.8986 22 47.475V55.3333H0.125ZM34.5 41.6666C32.5208 41.6666 30.6458 41.1684 28.875 40.1718C27.1042 39.1753 25.6198 37.7944 24.4219 36.0291C23.5365 34.6055 22.4297 33.4809 21.1016 32.6552C19.7734 31.8295 18.3281 31.4166 16.7656 31.4166C17.9115 29.3097 20.3333 27.6441 24.0312 26.4198C27.7292 25.1954 31.2188 24.5833 34.5 24.5833C37.7812 24.5833 41.2708 25.1954 44.9688 26.4198C48.6667 27.6441 51.0885 29.3097 52.2344 31.4166C50.724 31.4166 49.2917 31.8295 47.9375 32.6552C46.5833 33.4809 45.4635 34.6055 44.5781 36.0291C43.4323 37.8513 41.974 39.2465 40.2031 40.2145C38.4323 41.1826 36.5312 41.6666 34.5 41.6666ZM9.5 31.4166C6.89583 31.4166 4.68229 30.4201 2.85938 28.427C1.03646 26.434 0.125 24.0138 0.125 21.1666C0.125 18.2625 1.03646 15.8281 2.85938 13.8635C4.68229 11.8989 6.89583 10.9166 9.5 10.9166C12.1562 10.9166 14.3828 11.8989 16.1797 13.8635C17.9766 15.8281 18.875 18.2625 18.875 21.1666C18.875 24.0138 17.9766 26.434 16.1797 28.427C14.3828 30.4201 12.1562 31.4166 9.5 31.4166ZM59.5 31.4166C56.8958 31.4166 54.6823 30.4201 52.8594 28.427C51.0365 26.434 50.125 24.0138 50.125 21.1666C50.125 18.2625 51.0365 15.8281 52.8594 13.8635C54.6823 11.8989 56.8958 10.9166 59.5 10.9166C62.1562 10.9166 64.3828 11.8989 66.1797 13.8635C67.9766 15.8281 68.875 18.2625 68.875 21.1666C68.875 24.0138 67.9766 26.434 66.1797 28.427C64.3828 30.4201 62.1562 31.4166 59.5 31.4166ZM34.5 21.1666C31.8958 21.1666 29.6823 20.1701 27.8594 18.177C26.0365 16.184 25.125 13.7638 25.125 10.9166C25.125 8.01246 26.0365 5.57808 27.8594 3.6135C29.6823 1.64892 31.8958 0.666626 34.5 0.666626C37.1562 0.666626 39.3828 1.64892 41.1797 3.6135C42.9766 5.57808 43.875 8.01246 43.875 10.9166C43.875 13.7638 42.9766 16.184 41.1797 18.177C39.3828 20.1701 37.1562 21.1666 34.5 21.1666Z" fill="black"/>
</svg>
